<svg width="15" height="15" viewBox="0 0 15 15" fill="none" xmlns="http://www.w3.org/2000/svg">
<path d="M9.89328 9.80864C9.19444 10.5075 9.2818 11.9176 9.2818 11.9176H5.7377C5.7377 11.9176 5.81257 10.5075 5.12622 9.80864C4.36499 9.13476 3.8783 8.16139 3.8783 7.07569C3.8783 5.07902 5.50059 3.45673 7.49727 3.45673C9.49394 3.45673 11.1162 5.07902 11.1162 7.07569C11.1162 8.16139 10.642 9.13476 9.89328 9.80864Z" fill="#FFD517"/>
<path d="M9.38159 13.0282C9.38159 13.2154 9.23184 13.3652 9.04465 13.3652H5.9623C5.77512 13.3652 5.62537 13.2154 5.62537 13.0282C5.62537 12.841 5.77512 12.6913 5.9623 12.6913H9.03217C9.21936 12.6913 9.38159 12.841 9.38159 13.0282Z" fill="#E5E5E5"/>
<path d="M8.91981 14.4259C8.91981 14.6131 8.77006 14.7628 8.58288 14.7628H6.42397C6.23679 14.7628 6.08704 14.6131 6.08704 14.4259C6.08704 14.2387 6.23679 14.0889 6.42397 14.0889H8.58288C8.77006 14.0889 8.91981 14.2387 8.91981 14.4259Z" fill="#E5E5E5"/>
<path d="M10.0804 9.93341C10.8915 9.19714 11.3533 8.16137 11.3533 7.07568C11.3533 4.95421 9.61865 3.2196 7.49719 3.2196C5.37572 3.2196 3.64111 4.95421 3.64111 7.07568C3.64111 8.18633 4.1278 9.24706 4.95143 9.97085C5.56291 10.5823 5.50051 11.8802 5.50051 11.8926C5.50051 11.955 5.52547 12.0174 5.56291 12.0674C5.61283 12.1173 5.67522 12.1422 5.73762 12.1422H9.26923C9.33163 12.1422 9.39402 12.1173 9.44394 12.0674C9.49386 12.0174 9.50634 11.955 9.50634 11.8926C9.50634 11.8802 9.44394 10.5823 10.0554 9.97085C10.0679 9.95837 10.0804 9.94589 10.0804 9.93341ZM9.73096 9.62143C9.706 9.63391 9.69353 9.65887 9.68105 9.68383C9.13196 10.2704 9.04461 11.2313 9.03213 11.6805H5.97472C5.96224 11.2188 5.86241 10.2204 5.27589 9.63391C4.53962 8.985 4.11532 8.06153 4.11532 7.08816C4.11532 5.21628 5.63779 3.70629 7.49719 3.70629C9.36907 3.70629 10.879 5.22876 10.879 7.08816C10.879 8.04906 10.4672 8.985 9.73096 9.62143Z" fill="#210B20"/>
<path d="M7.49724 4.21796C7.37244 4.21796 7.26013 4.31779 7.26013 4.45506C7.26013 4.57985 7.35997 4.69217 7.49724 4.69217C8.89491 4.69217 10.0305 5.82777 10.0305 7.22544C10.0305 7.35024 10.1303 7.46255 10.2676 7.46255C10.3924 7.46255 10.5047 7.36272 10.5047 7.22544C10.5047 5.56571 9.15697 4.21796 7.49724 4.21796Z" fill="#210B20"/>
<path d="M9.61863 13.0283C9.61863 12.7039 9.35657 12.4543 9.04459 12.4543H5.96223C5.63777 12.4543 5.38818 12.7163 5.38818 13.0283C5.38818 13.3528 5.65025 13.6024 5.96223 13.6024H9.03211C9.35657 13.6024 9.61863 13.3528 9.61863 13.0283ZM9.03211 13.1282H5.96223C5.89983 13.1282 5.86239 13.0782 5.86239 13.0283C5.86239 12.9659 5.91231 12.9285 5.96223 12.9285H9.03211C9.09451 12.9285 9.13194 12.9784 9.13194 13.0283C9.14442 13.0907 9.09451 13.1282 9.03211 13.1282Z" fill="#210B20"/>
<path d="M8.58292 13.8519H6.42402C6.09956 13.8519 5.84998 14.114 5.84998 14.426C5.84998 14.7504 6.11204 15 6.42402 15H8.58292C8.90738 15 9.15696 14.738 9.15696 14.426C9.15696 14.114 8.8949 13.8519 8.58292 13.8519ZM8.58292 14.5258H6.42402C6.36162 14.5258 6.32419 14.4759 6.32419 14.426C6.32419 14.3636 6.3741 14.3261 6.42402 14.3261H8.58292C8.64532 14.3261 8.68275 14.3761 8.68275 14.426C8.68275 14.4884 8.64532 14.5258 8.58292 14.5258Z" fill="#210B20"/>
<path d="M7.73434 1.83444V0.237105C7.73434 0.112313 7.63451 0 7.49724 0C7.37244 0 7.26013 0.0998336 7.26013 0.237105V1.84692C7.26013 1.97171 7.35997 2.08403 7.49724 2.08403C7.63451 2.07155 7.73434 1.97171 7.73434 1.83444Z" fill="#210B20"/>
<path d="M11.4281 1.18552C11.3158 1.11065 11.1785 1.14809 11.1037 1.24792L10.2176 2.5832C10.1428 2.69551 10.1802 2.83278 10.28 2.90765C10.3175 2.93261 10.3674 2.94509 10.4048 2.94509C10.4797 2.94509 10.5546 2.90765 10.6045 2.84526L11.4905 1.50998C11.5654 1.41015 11.5279 1.2604 11.4281 1.18552Z" fill="#210B20"/>
<path d="M4.67693 2.89516C4.71437 2.89516 4.76428 2.88268 4.80172 2.85772C4.91403 2.78285 4.93899 2.64558 4.8766 2.53326L4.01553 1.18551C3.94065 1.0732 3.80338 1.04824 3.69107 1.11064C3.57875 1.18551 3.55379 1.32278 3.61619 1.4351L4.47726 2.78285C4.52718 2.85772 4.60205 2.89516 4.67693 2.89516Z" fill="#210B20"/>
<path d="M1.36994 4.01827L2.78009 4.7795C2.81753 4.80446 2.85496 4.80446 2.8924 4.80446C2.97976 4.80446 3.05463 4.75454 3.10455 4.67967C3.16695 4.56735 3.12951 4.4176 3.00472 4.35521L1.59457 3.59397C1.48225 3.53158 1.3325 3.56901 1.27011 3.69381C1.22019 3.8186 1.25763 3.95587 1.36994 4.01827Z" fill="#210B20"/>
<path d="M12.1021 4.81694C12.1396 4.81694 12.177 4.80446 12.2144 4.79198L13.6246 4.03076C13.7369 3.96836 13.7868 3.83109 13.7244 3.7063C13.662 3.59399 13.5247 3.54407 13.4 3.60647L11.9898 4.36769C11.8775 4.43009 11.8276 4.56736 11.89 4.69215C11.9274 4.76702 12.0148 4.81694 12.1021 4.81694Z" fill="#210B20"/>
</svg>
