<svg width="42" height="43" viewBox="0 0 42 43" fill="none" xmlns="http://www.w3.org/2000/svg">
<path d="M36.54 5.55237C35.2573 4.23908 33.7138 3.58333 31.9078 3.58333H10.0555C8.2495 3.58333 6.706 4.23908 5.42325 5.55237C4.1405 6.86566 3.5 8.44591 3.5 10.2949V32.6675C3.5 34.5165 4.1405 36.0967 5.42325 37.41C6.706 38.7233 8.2495 39.379 10.0555 39.379H15.155C15.4875 39.379 15.7378 39.3665 15.9058 39.3432C16.1012 39.3031 16.2776 39.1964 16.4063 39.0404C16.5725 38.8613 16.6565 38.6015 16.6565 38.261L16.6443 36.6754C16.6373 35.6649 16.6338 34.8658 16.6338 34.2746L16.1088 34.3677C15.7763 34.4305 15.3563 34.4573 14.847 34.4502C14.3162 34.4401 13.7871 34.3856 13.265 34.2871C12.7092 34.1821 12.186 33.9425 11.739 33.5884C11.2709 33.2258 10.9217 32.7258 10.738 32.155L10.5105 31.6175C10.3188 31.1935 10.0779 30.7947 9.793 30.4297C9.4675 29.9943 9.13675 29.7005 8.8025 29.5446L8.645 29.4281C8.53518 29.3476 8.43528 29.2537 8.3475 29.1486C8.26366 29.0511 8.19464 28.9411 8.14275 28.8225C8.09725 28.7132 8.13575 28.6237 8.2565 28.5538C8.379 28.4821 8.59775 28.4481 8.918 28.4481L9.373 28.5197C9.67575 28.5807 10.052 28.767 10.4983 29.077C10.9499 29.3922 11.3271 29.8066 11.6025 30.2899C11.9525 30.926 12.3725 31.4115 12.866 31.7465C13.3595 32.0798 13.8565 32.2482 14.357 32.2482C14.8575 32.2482 15.2898 32.2088 15.6555 32.1317C16.0092 32.0569 16.3529 31.939 16.6793 31.7806C16.8158 30.7414 17.1868 29.9387 17.794 29.3797C17.0072 29.3008 16.2273 29.1606 15.4613 28.9605C14.7136 28.7502 13.9946 28.4451 13.321 28.0521C12.6162 27.6593 11.9936 27.1284 11.4888 26.4898C11.004 25.8681 10.605 25.0529 10.2935 24.0442C9.98375 23.0337 9.828 21.8673 9.828 20.5468C9.828 18.6674 10.4265 17.0674 11.6253 15.7452C11.0653 14.3333 11.1178 12.7477 11.7845 10.9937C12.2255 10.8521 12.8783 10.9578 13.7428 11.3072C14.6073 11.6566 15.2408 11.9558 15.6433 12.203C16.0458 12.4539 16.3678 12.6635 16.611 12.8337C18.0337 12.4283 19.504 12.2246 20.9808 12.2281C22.484 12.2281 23.94 12.4306 25.3523 12.8337L26.2168 12.2747C26.8817 11.8659 27.5831 11.5228 28.3115 11.2499C29.1165 10.9381 29.729 10.8539 30.156 10.9937C30.8385 12.7495 30.898 14.3333 30.3363 15.747C31.535 17.0674 32.1353 18.6674 32.1353 20.5486C32.1353 21.8691 31.9795 23.039 31.668 24.0549C31.3583 25.0726 30.9558 25.8878 30.4623 26.5023C29.9688 27.1169 29.3545 27.6311 28.6195 28.0521C27.8845 28.4714 27.1705 28.7742 26.4793 28.9605C25.7132 29.1613 24.9334 29.302 24.1465 29.3815C24.934 30.0803 25.3295 31.1822 25.3295 32.689V38.261C25.3295 38.5244 25.3663 38.7376 25.4433 38.9007C25.4786 38.9792 25.5291 39.0497 25.5916 39.1078C25.6542 39.166 25.7275 39.2107 25.8073 39.2393C25.9753 39.3002 26.1223 39.3396 26.2518 39.354C26.3813 39.3719 26.5668 39.3773 26.8083 39.3773H31.9078C33.7138 39.3773 35.2573 38.7215 36.54 37.4082C37.821 36.0967 38.4633 34.5147 38.4633 32.6657V10.2949C38.4633 8.44591 37.821 6.86566 36.5383 5.55237H36.54Z" fill="#94969C"/>
</svg>
