<svg width="42" height="43" viewBox="0 0 42 43" fill="none" xmlns="http://www.w3.org/2000/svg">
<g clip-path="url(#clip0)">
<path d="M42 10.5834C40.6882 11.1699 39.2988 11.5545 37.877 11.7247C39.3694 10.8275 40.4916 9.40467 41.034 7.7221C39.62 8.56477 38.0778 9.15831 36.4717 9.47794C35.7955 8.75268 34.9819 8.17609 34.0808 7.78334C33.1797 7.39059 32.2099 7.18992 31.2305 7.19356C27.265 7.19356 24.0503 10.4365 24.0503 14.4319C24.0503 14.9981 24.1132 15.5517 24.2357 16.0802C21.3913 15.9417 18.6062 15.1977 16.0583 13.8955C13.5104 12.5934 11.2556 10.7618 9.43775 8.5176C8.80045 9.6184 8.46548 10.875 8.46825 12.1547C8.46825 14.6684 9.73525 16.8847 11.6603 18.1801C10.5218 18.1424 9.40804 17.8313 8.40875 17.2717V17.3613C8.40875 20.8694 10.885 23.7951 14.1662 24.4616C13.5496 24.6292 12.9143 24.7141 12.2763 24.7143C11.8125 24.7143 11.3628 24.6695 10.9235 24.5799C11.3926 26.0274 12.2904 27.2895 13.4922 28.1907C14.6939 29.092 16.14 29.5877 17.6295 29.6091C15.0746 31.6239 11.9382 32.7124 8.71325 32.7033C8.13225 32.7033 7.56175 32.6675 7 32.603C10.2922 34.7363 14.1095 35.8661 18.0058 35.8602C31.213 35.8602 38.4335 24.8289 38.4335 15.2632L38.409 14.3262C39.8175 13.3115 41.0342 12.0433 42 10.5834V10.5834Z" fill="#94969C"/>
</g>
<defs>
<clipPath id="clip0">
<rect width="42" height="43" fill="white"/>
</clipPath>
</defs>
</svg>
