<svg width="42" height="43" viewBox="0 0 42 43" fill="none" xmlns="http://www.w3.org/2000/svg">
<path d="M36.001 9.10704L22.183 21.715C21.8624 22.0076 21.4479 22.1694 21.0184 22.1694C20.5889 22.1694 20.1743 22.0076 19.8538 21.715L5.978 9.1142C6.30926 9.01077 6.65368 8.95823 7 8.95833H35C35.3389 8.95802 35.6761 9.00811 36.001 9.10704V9.10704ZM38.374 11.5885C38.4562 11.8931 38.5 12.212 38.5 12.5417V30.4583C38.5 31.4087 38.1313 32.3201 37.4749 32.9921C36.8185 33.6641 35.9283 34.0417 35 34.0417H7C6.07174 34.0417 5.1815 33.6641 4.52513 32.9921C3.86875 32.3201 3.5 31.4087 3.5 30.4583V12.5417C3.5 12.2102 3.54375 11.8895 3.626 11.5849L17.5245 24.3917C18.4862 25.2692 19.7294 25.7541 21.0175 25.7541C22.3056 25.7541 23.5488 25.2692 24.5105 24.3917L38.374 11.5885V11.5885Z" fill="#94969C"/>
</svg>
