<svg width="42" height="43" viewBox="0 0 42 43" fill="none" xmlns="http://www.w3.org/2000/svg">
<path d="M38.4282 24.5799V37.8006H30.9417V25.465C30.9417 22.3654 29.8585 20.2512 27.1495 20.2512C25.081 20.2512 23.849 21.6774 23.3083 23.0552C23.1105 23.5479 23.0598 24.2341 23.0598 24.9239V37.8006H15.5697C15.5697 37.8006 15.6712 16.9097 15.5697 14.7436H23.0598V18.0116L23.0108 18.0869H23.0598V18.0116C24.0538 16.4439 25.83 14.2025 29.8077 14.2025C34.734 14.2025 38.4282 17.4992 38.4282 24.5799V24.5799ZM7.73675 3.62991C5.1765 3.62991 3.5 5.34991 3.5 7.61279C3.5 9.8255 5.1275 11.5975 7.63875 11.5975H7.68775C10.3005 11.5975 11.9228 9.8255 11.9228 7.61279C11.8773 5.34991 10.3022 3.62991 7.7385 3.62991H7.73675ZM3.9445 37.8006H11.431V14.7436H3.9445V37.8006Z" fill="#94969C"/>
</svg>
