<svg width="24" height="24" viewBox="0 0 24 24" fill="none" xmlns="http://www.w3.org/2000/svg">
<path d="M24 5.90701C23.2504 6.23439 22.4565 6.44905 21.644 6.54401C22.4968 6.04324 23.138 5.24912 23.448 4.31001C22.64 4.78034 21.7587 5.11161 20.841 5.29001C20.4545 4.88522 19.9897 4.5634 19.4748 4.34419C18.9598 4.12498 18.4056 4.01298 17.846 4.01501C15.58 4.01501 13.743 5.82501 13.743 8.05501C13.743 8.37101 13.779 8.68001 13.849 8.97501C12.2236 8.89771 10.6321 8.48242 9.17617 7.75565C7.72022 7.02888 6.43176 6.00659 5.393 4.75401C5.02883 5.36841 4.83742 6.06979 4.839 6.78401C4.839 8.18701 5.563 9.42401 6.663 10.147C6.01248 10.126 5.37602 9.95234 4.805 9.64001V9.69001C4.805 11.648 6.22 13.281 8.095 13.653C7.74261 13.7465 7.37958 13.7939 7.015 13.794C6.75 13.794 6.493 13.769 6.242 13.719C6.51008 14.5269 7.02311 15.2313 7.70982 15.7344C8.39653 16.2374 9.22284 16.5141 10.074 16.526C8.61407 17.6506 6.82182 18.2581 4.979 18.253C4.647 18.253 4.321 18.233 4 18.197C5.88125 19.3877 8.06259 20.0183 10.289 20.015C17.836 20.015 21.962 13.858 21.962 8.51901L21.948 7.99601C22.7529 7.42968 23.4481 6.72186 24 5.90701Z" fill="#FFA69E"/>
</svg>
